#!OML:ASF F:\VICON\USERDATA\INSTALL\rory3\rory3.ASF
:FULLY-SPECIFIED
:DEGREES
552
root 4.56781 17.4674 2.44551 4.27631 -9.76013 -6.26845
lowerback 12.5551 -0.36944 2.97731
upperback 5.04959 -0.129395 1.33603
thorax -1.74827 -0.0566752 -0.270345
lowerneck -12.6126 -0.525143 -2.43593
upperneck 36.1196 -0.50274 0.737186
head 14.5593 -0.503593 0.642525
rclavicle 1.74931e-014 3.97569e-016
rhumerus -37.4389 -1.31746 -20.494
rradius 37.3745
rwrist 4.529
rhand -19.4129 -41.0407
rfingers 7.12502
rthumb 6.90661 -70.9081
lclavicle 1.74931e-014 3.97569e-016
lhumerus -35.2769 4.32758 16.2229
lradius 27.9024
lwrist 9.02532
lhand -30.3124 -29.2552
lfingers 7.12502
lthumb -3.61918 0.69384
rfemur -102.162 2.98129 28.5858
rtibia 103.379
rfoot 47.5769 4.18188
rtoes -8.20556
lfemur -15.6159 0.914357 -22.4633
ltibia 27.7166
lfoot -13.5322 6.09376
ltoes 14.4331
553
root 4.56589 17.4646 2.43839 4.28388 -9.76281 -6.28264
lowerback 12.6232 -0.366912 2.94716
upperback 5.08203 -0.127285 1.36049
thorax -1.75108 -0.0560969 -0.22804
lowerneck -12.7512 -0.517327 -2.32743
upperneck 36.059 -0.450664 0.556384
head 14.561 -0.489747 0.556795
rclavicle 5.66536e-015 3.97569e-016
rhumerus -37.2262 -1.44852 -20.3624
rradius 37.2616
rwrist 4.77018
rhand -19.0489 -41.4631
rfingers 7.12502
rthumb 7.25795 -71.3186
lclavicle 5.66536e-015 3.97569e-016
lhumerus -35.0776 4.96905 15.8305
lradius 27.7801
lwrist 8.91588
lhand -26.1263 -41.4184
lfingers 7.12502
lthumb 0.423737 -11.4391
rfemur -102.173 3.01744 28.5595
rtibia 103.22
rfoot 47.8691 4.42861
rtoes -8.41359
lfemur -15.7188 0.983311 -22.4363
ltibia 27.867
lfoot -13.6102 6.02282
ltoes 14.3187
554
root 4.56454 17.4686 2.43027 4.34773 -9.75937 -6.4784
lowerback 12.5631 -0.366117 3.12121
upperback 5.17753 -0.110187 1.43425
thorax -1.61784 -0.044486 -0.251955
lowerneck -12.8799 -0.521006 -2.17144
upperneck 35.8877 -0.39185 0.274739
head 14.5086 -0.478853 0.422287
rclavicle -2.48481e-014 1.47101e-014
rhumerus -36.9097 -1.79178 -20.1528
rradius 36.9753
rwrist 4.89536
rhand -18.8426 -41.4423
rfingers 7.12502
rthumb 7.4571 -71.2909
lclavicle -2.48481e-014 1.47101e-014
lhumerus -34.9755 4.90913 15.8569
lradius 27.9359
lwrist 9.37143
lhand -28.698 -34.3389
lfingers 7.12502
lthumb -2.06 -4.36911
rfemur -102.095 3.09175 28.723
rtibia 102.996
rfoot 47.9978 4.98325
rtoes -9.07523
lfemur -15.861 1.06611 -22.2072
ltibia 28.0037
lfoot -13.632 5.92433
ltoes 14.4382
555
root 4.56311 17.4692 2.4198 4.39708 -9.75607 -6.56141
lowerback 12.3963 -0.340759 3.22519
upperback 5.28862 -0.0753044 1.47779
thorax -1.41026 -0.023189 -0.270586
lowerneck -12.774 -0.544494 -2.18764
upperneck 35.5951 -0.39177 0.192262
head 14.3484 -0.488411 0.391617
rclavicle -1.80894e-014 7.55382e-015
rhumerus -36.6908 -2.20342 -19.8806
rradius 36.6623
rwrist 5.12368
rhand -19.015 -41.386
rfingers 7.12502
rthumb 7.29064 -71.2403
lclavicle -1.80894e-014 7.55382e-015
lhumerus -34.8352 4.64327 16.0053
lradius 28.0602
lwrist 9.46638
lhand -29.0608 -33.7323
lfingers 7.12502
lthumb -2.41039 -3.76615
rfemur -102.116 3.13964 28.7874
rtibia 102.808
rfoot 48.0696 5.75199
rtoes -10.0512
lfemur -16.0314 1.14861 -22.0945
ltibia 28.1323
lfoot -13.5543 5.84107
ltoes 14.441
556
root 4.56187 17.4635 2.40901 4.42249 -9.7447 -6.48162
lowerback 12.4061 -0.328841 3.15032
upperback 5.27271 -0.0669806 1.47632
thorax -1.43224 -0.0202931 -0.231116
lowerneck -12.5456 -0.560418 -2.29551
upperneck 35.3813 -0.420422 0.276139
head 14.199 -0.501738 0.440741
rclavicle 4.67144e-015 1.07344e-014
rhumerus -36.5793 -2.42353 -19.6535
rradius 36.3671
rwrist 5.72523
rhand -19.6231 -41.1377
rfingers 7.12502
rthumb 6.7037 -71.0116
lclavicle 4.67144e-015 1.07344e-014
lhumerus -34.8556 4.29093 16.0455
lradius 28.6682
lwrist 9.98821
lhand -26.7274 -35.4741
lfingers 7.12502
lthumb -0.156844 -5.49441
rfemur -102.278 3.13147 28.6742
rtibia 102.722
rfoot 48.2915 5.88721
rtoes -10.3007
lfemur -16.1945 1.28267 -22.1702
ltibia 28.2387
lfoot -13.498 5.74236
ltoes 13.9976
557
root 4.56061 17.458 2.39901 4.44195 -9.6336 -6.38498
lowerback 12.6067 -0.372928 3.03136
upperback 5.14748 -0.125233 1.47519
thorax -1.67331 -0.0540475 -0.156586
lowerneck -12.371 -0.560672 -2.34124
upperneck 35.3512 -0.433746 0.329934
head 14.1462 -0.506677 0.468756
rclavicle 1.63997e-014 3.85642e-014
rhumerus -36.4928 -2.37409 -19.486
rradius 36.2385
rwrist 6.08894
rhand -19.6034 -40.8175
rfingers 7.12502
rthumb 6.72269 -70.6908
lclavicle 1.63997e-014 3.85642e-014
lhumerus -34.9338 3.82828 16.0936
lradius 29.4628
lwrist 10.8317
lhand -26.0664 -31.0727
lfingers 7.12502
lthumb 0.481635 -1.09351
rfemur -102.45 3.01588 28.5147
rtibia 102.716
rfoot 48.4361 5.5396
rtoes -10.0945
lfemur -16.3418 1.37613 -22.2639
ltibia 28.3323
lfoot -13.5871 5.57063
ltoes 14.4859
